<?xml version="1.0" encoding="UTF-8"?>
<svg version="1.1" xmlns="http://www.w3.org/2000/svg" width="512" height="512">
<path d="M0 0 C0.75055161 -0.00979385 1.50110321 -0.01958771 2.2743988 -0.02967834 C18.86543311 -0.2015912 34.74604985 -0.01063346 50.8984375 4.23828125 C51.73004395 4.44727051 52.56165039 4.65625977 53.41845703 4.87158203 C83.94810508 12.68693776 109.26871297 28.71489881 131.8984375 50.23828125 C132.84783203 51.10839844 132.84783203 51.10839844 133.81640625 51.99609375 C161.24907075 77.93006161 178.44433059 118.87319816 180.8984375 156.23828125 C181.01657208 160.60957424 181.04269722 164.9773163 181.02880859 169.35009766 C181.02342948 171.36628675 181.02879296 173.38225498 181.03515625 175.3984375 C181.03322266 177.33396484 181.03322266 177.33396484 181.03125 179.30859375 C181.03012207 180.47148926 181.02899414 181.63438477 181.02783203 182.83251953 C180.89378876 186.36063955 180.45701909 189.75421871 179.8984375 193.23828125 C180.60613281 193.49351562 181.31382812 193.74875 182.04296875 194.01171875 C210.76565793 206.34950863 233.94668618 236.19707903 247.8984375 263.23828125 C248.21796387 263.85670898 248.53749023 264.47513672 248.86669922 265.11230469 C259.18587506 285.40542518 265.88722654 308.45338676 266.13671875 331.3046875 C266.15154549 332.42614166 266.15154549 332.42614166 266.16667175 333.57025146 C266.69026603 383.50066725 251.40220852 426.77990341 216.44726562 462.97094727 C185.72793731 494.18537135 143.80591303 512.10787632 100.05688477 512.65795898 C85.85891676 512.7497299 71.7475966 512.68431614 57.8984375 509.23828125 C57.07069824 509.03960449 56.24295898 508.84092773 55.39013672 508.63623047 C42.04551336 505.35597413 28.76987161 500.95539976 16.82275391 494.03613281 C12.62155076 491.61139071 12.62155076 491.61139071 7.8828125 491.75390625 C6.89796875 492.24375 5.913125 492.73359375 4.8984375 493.23828125 C4.31513672 493.51349609 3.73183594 493.78871094 3.13085938 494.07226562 C1.8291511 494.68774 0.53326336 495.31563712 -0.75732422 495.95410156 C-20.67698174 505.7908548 -42.83940637 512.23277759 -65.16796875 512.4765625 C-66.28942291 512.49138924 -66.28942291 512.49138924 -67.43353271 512.5065155 C-116.03501635 513.01617396 -159.92125742 498.59421838 -195.2902832 464.4519043 C-203.86969009 455.99320426 -211.55920418 447.36042053 -218.1015625 437.23828125 C-218.4948877 436.6359668 -218.88821289 436.03365234 -219.29345703 435.41308594 C-243.36373179 398.1244579 -253.07507819 351.06560577 -243.86816406 307.33276367 C-243.31566434 304.95696797 -242.71850354 302.59806807 -242.1015625 300.23828125 C-241.91964355 299.49465332 -241.73772461 298.75102539 -241.55029297 297.98486328 C-238.71379968 286.50454327 -234.2565658 275.8582176 -229.1015625 265.23828125 C-228.77784668 264.57022461 -228.45413086 263.90216797 -228.12060547 263.21386719 C-217.98512214 242.61312375 -202.79653427 223.03034856 -184.6015625 208.92578125 C-184.0127832 208.46647217 -183.42400391 208.00716309 -182.81738281 207.53393555 C-178.27476747 204.03855912 -173.6088508 200.74672384 -168.8515625 197.55078125 C-168.20767578 197.11660889 -167.56378906 196.68243652 -166.90039062 196.23510742 C-162.35407258 193.23828125 -162.35407258 193.23828125 -160.1015625 193.23828125 C-160.26140625 192.37460938 -160.42125 191.5109375 -160.5859375 190.62109375 C-166.37470894 149.66861496 -154.30235719 104.36552656 -129.9206543 71.17041016 C-100.72653957 32.54365257 -60.45426367 7.56465041 -12.28637695 0.6940918 C-8.19521742 0.20154559 -4.11818779 0.04469738 0 0 Z " fill="#6C7FD8" transform="translate(246.1015625,-0.23828125)"/>
<path d="M0 0 C0.75055161 -0.00979385 1.50110321 -0.01958771 2.2743988 -0.02967834 C18.86543311 -0.2015912 34.74604985 -0.01063346 50.8984375 4.23828125 C51.73004395 4.44727051 52.56165039 4.65625977 53.41845703 4.87158203 C83.94810508 12.68693776 109.26871297 28.71489881 131.8984375 50.23828125 C132.84783203 51.10839844 132.84783203 51.10839844 133.81640625 51.99609375 C161.2468562 77.92796805 178.44853964 118.87473255 180.8984375 156.23828125 C181.01650821 160.6278809 181.04271288 165.01394913 181.02880859 169.4050293 C181.02342043 171.43220399 181.02879766 173.45915989 181.03515625 175.48632812 C181.03322266 177.42668945 181.03322266 177.42668945 181.03125 179.40625 C181.03012207 180.57438232 181.02899414 181.74251465 181.02783203 182.94604492 C180.90281224 186.12697306 180.49535423 189.11469367 179.8984375 192.23828125 C176.99017193 191.59783581 174.48350177 190.66874208 171.80078125 189.3828125 C160.39917137 184.01864642 149.1022369 179.42369639 136.8984375 176.23828125 C136.10937012 176.02800293 135.32030273 175.81772461 134.50732422 175.60107422 C121.90948062 172.39771677 109.45055714 171.87225669 96.5234375 171.86328125 C95.76797638 171.86128723 95.01251526 171.85929321 94.23416138 171.85723877 C80.45081712 171.86135963 66.73630758 172.75464622 53.3984375 176.48828125 C52.21254028 176.81252075 52.21254028 176.81252075 51.00268555 177.14331055 C39.17180428 180.46885639 28.02425329 184.75094381 17.30004883 190.78637695 C14.330409 192.38410726 12.24179281 193.24662364 8.84375 193.1640625 C5.45203312 192.09796581 2.53088588 190.67160631 -0.6015625 188.98828125 C-7.56401411 185.35060638 -14.63629441 182.70514583 -22.1015625 180.23828125 C-23.12765625 179.8928125 -24.15375 179.54734375 -25.2109375 179.19140625 C-40.96355396 173.99730028 -56.79370063 171.71186403 -73.33374023 171.84716797 C-75.66774644 171.86330672 -78.00002844 171.84716574 -80.33398438 171.828125 C-94.16033101 171.80846832 -107.37375954 173.94904838 -120.7265625 177.55078125 C-121.90520874 177.86607788 -121.90520874 177.86607788 -123.10766602 178.18774414 C-134.20167142 181.25911825 -144.54932113 185.72274282 -154.7109375 191.13671875 C-157.1015625 192.23828125 -157.1015625 192.23828125 -160.1015625 192.23828125 C-167.40100293 153.30183723 -155.09507802 108.95710009 -133.62109375 76.375 C-106.03569714 36.19591228 -66.32461891 11.17299277 -18.81958008 1.69970703 C-12.52858235 0.63171227 -6.37915116 0.06923709 0 0 Z " fill="#0ED190" transform="translate(246.1015625,-0.23828125)"/>
<path d="M0 0 C0.11480713 0.62753174 0.22961426 1.25506348 0.34790039 1.90161133 C3.00927072 16.17576123 6.30030102 29.62970464 12 43 C12.32983887 43.78181641 12.65967773 44.56363281 12.99951172 45.36914062 C25.40771185 74.29999395 45.67083111 98.42209276 70.8671875 117.1328125 C71.5183252 117.62442871 72.16946289 118.11604492 72.84033203 118.62255859 C75.00543225 120.11310222 75.00543225 120.11310222 77.71826172 120.99072266 C80.9786186 122.30925357 82.74544162 123.27203472 85 126 C86.65212225 132.4639781 85.74700129 139.53932584 85.375 146.125 C85.20604346 149.77277822 85.06891741 153.42022444 84.9609375 157.0703125 C84.91955406 158.42156975 84.91955406 158.42156975 84.87733459 159.80012512 C84.73109843 169.50251763 86.68677877 178.6241293 89 188 C89.24476074 189.05123047 89.48952148 190.10246094 89.74169922 191.18554688 C90.37897736 193.83932787 91.15759306 196.40344528 92 199 C92.20931152 199.64662598 92.41862305 200.29325195 92.63427734 200.95947266 C105.88482668 241.10585605 132.59592287 274.45472986 169 296 C154.27465567 312.01349134 118.8271693 318.24399221 98.06030273 319.17700195 C96.6848283 319.20306346 95.30923307 319.22326192 93.93359375 319.23828125 C92.81213959 319.25310799 92.81213959 319.25310799 91.66802979 319.26823425 C43.06654615 319.77789271 -0.81969492 305.35593713 -36.1887207 271.21362305 C-44.76812759 262.75492301 -52.45764168 254.12213928 -59 244 C-59.3933252 243.39768555 -59.78665039 242.79537109 -60.19189453 242.17480469 C-84.26216929 204.88617665 -93.97351569 157.82732452 -84.76660156 114.09448242 C-84.21410184 111.71868672 -83.61694104 109.35978682 -83 107 C-82.81808105 106.25637207 -82.63616211 105.51274414 -82.44873047 104.74658203 C-79.61223718 93.26626202 -75.1550033 82.61993635 -70 72 C-69.51442627 70.99791504 -69.51442627 70.99791504 -69.01904297 69.97558594 C-58.88398575 49.37570858 -43.69541259 29.79034358 -25.5 15.6875 C-24.91049561 15.22819092 -24.32099121 14.76888184 -23.71362305 14.2956543 C-19.18461841 10.81395595 -14.54397301 7.5128286 -9.8125 4.3125 C-9.17699219 3.87832764 -8.54148437 3.44415527 -7.88671875 2.99682617 C-3.36486958 0 -3.36486958 0 0 0 Z " fill="#E1F0FD" transform="translate(87,193)"/>
<path d="M0 0 C0.80765808 -0.00045319 1.61531616 -0.00090637 2.44744873 -0.00137329 C21.43955895 0.02981052 41.13254217 1.9628897 58.75 9.625 C59.73226562 10.04910156 60.71453125 10.47320312 61.7265625 10.91015625 C63.37785156 11.63525391 63.37785156 11.63525391 65.0625 12.375 C66.46580067 12.9786676 67.86946697 13.58148572 69.2734375 14.18359375 C70.72419279 14.80935254 72.17471571 15.43565036 73.625 16.0625 C74.3161792 16.35995117 75.0073584 16.65740234 75.71948242 16.96386719 C78.69399615 18.26164933 81.35395676 19.56930451 84.0625 21.375 C88.99759337 21.10238153 92.69930762 19.14912296 96.9375 16.8125 C112.12913082 8.86267312 129.07654409 3.64605046 146.0625 1.375 C147.33867187 1.19453125 148.61484375 1.0140625 149.9296875 0.828125 C186.00932659 -3.01289377 221.14180943 2.84048367 253.0625 20.375 C253.7225 20.705 254.3825 21.035 255.0625 21.375 C254.062364 48.22865156 241.53480372 76.69578374 226.0625 98.375 C225.67964844 98.91866211 225.29679687 99.46232422 224.90234375 100.02246094 C213.03743633 116.63528923 198.00612476 131.05219447 181.0625 142.375 C180.12019531 143.03242188 179.17789062 143.68984375 178.20703125 144.3671875 C172.3984735 148.375 172.3984735 148.375 170.0625 148.375 C169.63710938 146.45880859 169.63710938 146.45880859 169.203125 144.50390625 C168.92758789 143.26664795 168.92758789 143.26664795 168.64648438 142.00439453 C168.27029739 140.31060949 167.89641847 138.61630936 167.52539062 136.92138672 C160.39244865 104.53345255 146.2693324 75.51524894 122.57421875 51.89453125 C121.01579747 50.33126262 119.4806559 48.74393976 117.984375 47.12109375 C111.0887752 39.79141842 103.24449977 34.14441017 94.88427734 28.59033203 C93.37444698 27.583104 91.89558339 26.52963374 90.42578125 25.46484375 C87.13958324 23.94939045 85.50119074 24.3082687 82.0625 25.375 C79.73034865 26.76230178 77.65429206 28.13068486 75.5 29.75 C74.89357666 30.19625732 74.28715332 30.64251465 73.66235352 31.10229492 C44.56219527 52.78483983 24.07189904 79.38507769 11.0625 113.375 C10.66546875 114.38175781 10.2684375 115.38851562 9.859375 116.42578125 C6.10767304 126.71318623 4.26590803 137.67350963 2.0625 148.375 C-10.83589723 142.2578044 -21.18599889 133.60553272 -31.44921875 123.79589844 C-32.4442066 122.84595925 -33.44426263 121.90130134 -34.44921875 120.96191406 C-62.48165438 94.71303314 -77.8386188 58.76379343 -83.9375 21.375 C-70.83332306 15.11998768 -58.00238079 9.10552707 -43.9375 5.375 C-42.89851563 5.08238281 -41.85953125 4.78976563 -40.7890625 4.48828125 C-27.26360795 0.84954348 -13.92012249 -0.0305211 0 0 Z " fill="#89C9FD" transform="translate(169.9375,170.625)"/>
<path d="M0 0 C3.72842706 1.10845129 7.18156025 2.52736654 10.6875 4.1875 C22.44759694 9.56762532 34.48425805 13.85820311 47.0625 16.875 C47.90603027 17.07802734 48.74956055 17.28105469 49.61865234 17.49023438 C74.82018959 23.22846109 104.26515696 21.92520424 129 15 C130.22855713 14.66307129 130.22855713 14.66307129 131.48193359 14.31933594 C143.00601834 11.06196247 153.64550291 6.11923808 164.31445312 0.73095703 C166 0 166 0 168 0 C169.15958821 3.47876463 169.17986404 6.62540324 169.203125 10.24609375 C169.2138504 11.32360397 169.2138504 11.32360397 169.22479248 12.42288208 C169.62214735 64.24841424 153.12684926 107.47569382 117 145 C111.07317328 150.95716883 104.512846 155.97817034 97.75 160.9375 C96.98099365 161.505896 96.2119873 162.07429199 95.41967773 162.65991211 C87.42938744 168.40941501 87.42938744 168.40941501 83 169 C80.4242738 167.84940614 78.56402711 166.79897987 76.3125 165.1875 C75.70164551 164.77097168 75.09079102 164.35444336 74.46142578 163.92529297 C68.70713707 159.93947598 63.26729269 155.60888111 58 151 C57.50757813 150.56929199 57.01515625 150.13858398 56.5078125 149.69482422 C25.05504987 122.00401956 1.70046521 80.97179134 -1.16461182 38.56344604 C-1.35427952 33.59087774 -1.34349994 28.62210432 -1.28125 23.64697266 C-1.24942141 21.07830609 -1.24019455 18.5102527 -1.234375 15.94140625 C-1.22522724 14.29686745 -1.21485871 12.65233488 -1.203125 11.0078125 C-1.19887512 10.24542267 -1.19462524 9.48303284 -1.19024658 8.69754028 C-1.14727729 5.54136944 -1.00523124 3.01569372 0 0 Z " fill="#8AC8FD" transform="translate(172,320)"/>
<path d="M0 0 C4.23008263 1.62189697 7.62566596 3.98738047 11.265625 6.65625 C12.01706787 7.19725342 12.76851074 7.73825684 13.54272461 8.2956543 C18.58824082 11.97772318 23.34572054 15.860787 27.890625 20.15234375 C29.89068166 22.03842659 31.95961498 23.78099661 34.078125 25.53125 C39.03997954 29.86665798 42.96628895 34.98359315 47.015625 40.15625 C47.83289063 41.15785156 48.65015625 42.15945312 49.4921875 43.19140625 C56.0475784 51.31063167 61.22736491 59.89735179 66.015625 69.15625 C66.36898926 69.83171875 66.72235352 70.5071875 67.08642578 71.203125 C75.55072037 87.57706266 83.015625 107.46465614 83.015625 126.15625 C69.05382018 133.29261946 55.16547563 139.07111634 40.015625 143.15625 C39.21882324 143.38070801 38.42202148 143.60516602 37.60107422 143.83642578 C25.21502507 147.20503819 12.89218334 147.51749154 0.140625 147.53125 C-0.64506866 147.53333466 -1.43076233 147.53541931 -2.24026489 147.53756714 C-15.73992654 147.53351112 -29.02195826 146.60603269 -42.109375 143.03125 C-42.88869385 142.82169678 -43.6680127 142.61214355 -44.47094727 142.39624023 C-58.47591902 138.47673639 -72.21661949 133.13489898 -84.984375 126.15625 C-83.21063037 98.21977215 -71.28212949 70.6328235 -54.984375 48.15625 C-54.60120117 47.62499512 -54.21802734 47.09374023 -53.82324219 46.54638672 C-41.95251015 30.26801677 -27.47884846 16.67380189 -10.984375 5.15625 C-9.96150391 4.41060791 -9.96150391 4.41060791 -8.91796875 3.64990234 C-5.81404825 1.5096991 -3.81478726 0.19972708 0 0 Z " fill="#698E97" transform="translate(256.984375,193.84375)"/>
<path d="M0 0 C0.66 0.33 1.32 0.66 2 1 C0.999864 27.85365156 -11.52769628 56.32078374 -27 78 C-27.38285156 78.54366211 -27.76570312 79.08732422 -28.16015625 79.64746094 C-40.02506367 96.26028923 -55.05637524 110.67719447 -72 122 C-72.94230469 122.65742188 -73.88460937 123.31484375 -74.85546875 123.9921875 C-80.6640265 128 -80.6640265 128 -83 128 C-83.28359375 126.72253906 -83.5671875 125.44507813 -83.859375 124.12890625 C-84.04306641 123.30406738 -84.22675781 122.47922852 -84.41601562 121.62939453 C-84.79220261 119.93560949 -85.16608153 118.24130936 -85.53710938 116.54638672 C-92.67005135 84.15845255 -106.7931676 55.14024894 -130.48828125 31.51953125 C-132.04670253 29.95626262 -133.5818441 28.36893976 -135.078125 26.74609375 C-144.0938016 17.16288356 -155.09453129 10.23601855 -166 3 C-162.40285001 -1.33226238 -157.97628644 -3.16058091 -152.9375 -5.375 C-151.61153809 -5.9620874 -151.61153809 -5.9620874 -150.25878906 -6.56103516 C-102.1722277 -27.37347329 -45.95505098 -25.24380198 0 0 Z " fill="#26A6FD" transform="translate(423,191)"/>
<path d="M0 0 C20.44528594 8.99592581 38.44706406 26.63530083 52 44 C53.175625 45.49080078 53.175625 45.49080078 54.375 47.01171875 C74.05214664 72.76901639 86.88283227 106.51039285 87.23828125 139.06640625 C87.24816574 139.81404236 87.25805023 140.56167847 87.26823425 141.33197021 C87.79182853 191.262386 72.50377102 234.54162216 37.54882812 270.73266602 C7.87786368 300.88183002 -33.57922203 319.89144844 -76.0799408 320.25804138 C-83.38828091 320.28300246 -90.69385596 320.17406739 -98 320 C-95.22432871 318.46979223 -92.93918208 317.69063243 -89.796875 317.32421875 C-88.98959961 317.22133545 -88.18232422 317.11845215 -87.35058594 317.01245117 C-86.0632959 316.85160034 -86.0632959 316.85160034 -84.75 316.6875 C-75.41034214 315.39557588 -66.86312945 313.15307791 -58 310 C-56.6836701 309.55316043 -55.36726319 309.10654769 -54.05078125 308.66015625 C-24.30479534 298.30960353 1.70612027 278.7430543 21 254 C21.79535156 252.98292969 22.59070313 251.96585938 23.41015625 250.91796875 C35.03088873 235.60414805 43.06839999 218.20853439 49 200 C49.59748047 198.20369141 49.59748047 198.20369141 50.20703125 196.37109375 C51.27066144 192.93321789 52.17492993 189.50272801 53 186 C53.14953125 185.36884277 53.2990625 184.73768555 53.453125 184.08740234 C55.96902941 172.909521 56.28872954 161.7218402 56.3125 150.3125 C56.31608521 149.62392914 56.31967041 148.93535828 56.32336426 148.22592163 C56.40333171 119.66095245 49.5113601 93.11462736 36 68 C35.51660156 67.08541016 35.51660156 67.08541016 35.0234375 66.15234375 C27.20496436 51.4370874 12.37435558 27.68717779 -3 20 C-2.22602467 13.29221378 -1.14231412 6.65425699 0 0 Z " fill="#4F66D0" transform="translate(425,192)"/>
<path d="M0 0 C18.40091074 -0.45125795 36.03004816 -0.57487069 54 4 C54.83885742 4.20898926 55.67771484 4.41797852 56.54199219 4.63330078 C87.06042492 12.45328307 112.37758291 28.48356775 135 50 C135.94939453 50.87011719 135.94939453 50.87011719 136.91796875 51.7578125 C164.3484187 77.6896868 181.55010214 118.6364513 184 156 C184.11807071 160.38959965 184.14427538 164.77566788 184.13037109 169.16674805 C184.12498293 171.19392274 184.13036016 173.22087864 184.13671875 175.24804688 C184.13478516 177.1884082 184.13478516 177.1884082 184.1328125 179.16796875 C184.13168457 180.33610107 184.13055664 181.5042334 184.12939453 182.70776367 C184.00437474 185.88869181 183.59691673 188.87641242 183 192 C179.93844534 191.32939867 177.25793699 190.30637508 174.41015625 189.00390625 C173.54326172 188.61009766 172.67636719 188.21628906 171.78320312 187.81054688 C170.88537109 187.39869141 169.98753906 186.98683594 169.0625 186.5625 C167.28298088 185.75036186 165.5030454 184.93913531 163.72265625 184.12890625 C162.93640869 183.76869385 162.15016113 183.40848145 161.34008789 183.03735352 C158.9157729 181.9626624 156.4677298 180.97031431 154 180 C153.97812622 179.17314697 153.97812622 179.17314697 153.95581055 178.32958984 C152.6299884 132.87684599 140.7221102 91.42014199 110 57 C109.02546875 55.84371094 109.02546875 55.84371094 108.03125 54.6640625 C104.05436685 49.94603294 99.76875733 45.90945204 95 42 C94.51144531 41.59378418 94.02289063 41.18756836 93.51953125 40.76904297 C66.08422168 18.05851885 34.79467029 6.68427782 0 1 C0 0.67 0 0.34 0 0 Z " fill="#00C285" transform="translate(243,0)"/>
<path d="M0 0 C1.15958821 3.47876463 1.17986404 6.62540324 1.203125 10.24609375 C1.21027527 10.9644339 1.21742554 11.68277405 1.22479248 12.42288208 C1.62214735 64.24841424 -14.87315074 107.47569382 -51 145 C-56.92682672 150.95716883 -63.487154 155.97817034 -70.25 160.9375 C-71.40350952 161.79009399 -71.40350952 161.79009399 -72.58032227 162.65991211 C-80.58489971 168.41969549 -80.58489971 168.41969549 -85 169 C-87.60982264 167.81695967 -89.57070764 166.73591932 -91.875 165.125 C-92.46796875 164.73441406 -93.0609375 164.34382812 -93.671875 163.94140625 C-95.1268549 162.97924212 -96.56520345 161.99201067 -98 161 C-96.42785186 156.67148823 -93.07676445 154.31404843 -89.625 151.5 C-55.11374057 122.50237373 -33.61837904 81.35456191 -29.1953125 36.38671875 C-28.53159564 28.27609877 -28.27659604 20.13147388 -28 12 C-27.42556152 11.74307373 -26.85112305 11.48614746 -26.25927734 11.22143555 C-23.63058185 10.04479903 -21.00278601 8.86616619 -18.375 7.6875 C-17.47136719 7.28337891 -16.56773437 6.87925781 -15.63671875 6.46289062 C-11.87632998 4.77483289 -8.15108886 3.07688447 -4.4765625 1.20703125 C-2 0 -2 0 0 0 Z " fill="#60B6FE" transform="translate(340,320)"/>
<path d="M0 0 C6.74569292 2.10899824 13.20792168 4.68521544 19.6875 7.5 C20.59822266 7.89058594 21.50894531 8.28117188 22.44726562 8.68359375 C27.03697052 10.66346645 31.56025659 12.70281933 36 15 C34.15171113 16.23219258 32.29744447 17.45553829 30.43359375 18.6640625 C19.83272768 25.60230861 10.26035586 33.36377471 1 42 C0.19820313 42.73605469 -0.60359375 43.47210938 -1.4296875 44.23046875 C-19.28550473 61.25909956 -31.25919692 83.16272546 -40 106 C-40.39703125 107.00675781 -40.7940625 108.01351562 -41.203125 109.05078125 C-44.95482696 119.33818623 -46.79659197 130.29850963 -49 141 C-55.01168724 138.12045871 -60.79472298 135.18370624 -66.1875 131.25 C-66.77080078 130.87101563 -67.35410156 130.49203125 -67.95507812 130.1015625 C-69.60546875 128.890625 -69.60546875 128.890625 -72 126 C-72.32044357 122.85091706 -71.72482619 120.06137371 -71 117 C-70.85312744 116.31115723 -70.70625488 115.62231445 -70.55493164 114.91259766 C-64.79857575 89.8384553 -53.18434937 64.72290304 -38 44 C-36.99453125 42.58847656 -36.99453125 42.58847656 -35.96875 41.1484375 C-26.73035004 28.46237379 -16.24565214 16.92125833 -5 6 C-3.31237149 4.3545622 -1.64009948 2.69281696 0 1 C0 0.67 0 0.34 0 0 Z " fill="#60B7FE" transform="translate(221,178)"/>
<path d="M0 0 C5.940442 0.55967801 10.84326976 2.96468094 16.1875 5.4375 C17.54004883 6.04948242 17.54004883 6.04948242 18.91992188 6.67382812 C22.46516501 8.29202175 25.75000558 9.83333705 29 12 C27.999864 38.85365156 15.47230372 67.32078374 0 89 C-0.38285156 89.54366211 -0.76570313 90.08732422 -1.16015625 90.64746094 C-13.02506367 107.26028923 -28.05637524 121.67719447 -45 133 C-45.94230469 133.65742188 -46.88460938 134.31484375 -47.85546875 134.9921875 C-53.6640265 139 -53.6640265 139 -56 139 C-56.51231022 136.88245107 -57.01093147 134.76068881 -57.44140625 132.625 C-57.95284786 130.00908013 -57.95284786 130.00908013 -58.77734375 127.5625 C-59.48595778 124.67246629 -59.68280636 122.91505793 -59 120 C-55.88466548 116.30186481 -52.31025085 113.37225546 -48.57177734 110.32617188 C-34.83532534 98.73617385 -25.0377295 81.805522 -17 66 C-16.67016113 65.35514648 -16.34032227 64.71029297 -16.00048828 64.04589844 C-7.3604693 46.78392638 -1.42769134 26.17434118 -0.375 6.875 C-0.30023438 5.57304687 -0.22546875 4.27109375 -0.1484375 2.9296875 C-0.09945312 1.96289062 -0.05046875 0.99609375 0 0 Z " fill="#0592FB" transform="translate(396,180)"/>
<path d="M0 0 C0.97324219 -0.02900391 1.94648438 -0.05800781 2.94921875 -0.08789062 C10.38680438 -0.15295699 15.74859383 1.12014244 21.3984375 6.09375 C21.84445312 6.6609375 22.29046875 7.228125 22.75 7.8125 C23.21148437 8.3796875 23.67296875 8.946875 24.1484375 9.53125 C27.54710876 14.46689999 27.94488477 18.41369274 27.375 24.3125 C26.941875 25.529375 26.50875 26.74625 26.0625 28 C25.835625 29.093125 25.60875 30.18625 25.375 31.3125 C27.56881992 34.511826 27.56881992 34.511826 30.375 37.3125 C33.07991677 41.94950018 33.10772471 47.10033451 32.375 52.3125 C29.68439221 60.28039432 25.80720135 64.85551882 18.5 68.90625 C12.99795217 71.19382161 7.11429835 70.8652153 1.25 70.875 C0.08339844 70.91173828 -1.08320313 70.94847656 -2.28515625 70.98632812 C-3.97318359 70.9950293 -3.97318359 70.9950293 -5.6953125 71.00390625 C-7.22309326 71.02239624 -7.22309326 71.02239624 -8.78173828 71.04125977 C-11.97202126 70.22355457 -13.71064419 69.09869981 -15.67816162 66.43153381 C-17.80565577 61.67018052 -17.30942396 56.33198273 -17.25390625 51.21484375 C-17.25631821 49.9478212 -17.25873016 48.68079865 -17.26121521 47.37538147 C-17.26023697 44.7007997 -17.24945915 42.02846616 -17.22192383 39.35424805 C-17.1878054 35.93537834 -17.19387742 32.51800876 -17.2125864 29.09906673 C-17.22572307 25.8250723 -17.20743536 22.55130583 -17.19140625 19.27734375 C-17.19636612 18.0532933 -17.20132599 16.82924286 -17.20643616 15.56809998 C-17.18268166 13.85591026 -17.18268166 13.85591026 -17.15844727 12.10913086 C-17.1491494 10.60738564 -17.1491494 10.60738564 -17.1396637 9.07530212 C-16.48637545 5.56833986 -15.0585802 3.87237591 -12.625 1.3125 C-8.81226885 -0.59386558 -4.19472782 0.04069917 0 0 Z " fill="#DCF0FA" transform="translate(245.625,63.6875)"/>
<path d="M0 0 C2.7734375 1.62890625 2.7734375 1.62890625 5.375 3.5625 C6.24898438 4.20316406 7.12296875 4.84382812 8.0234375 5.50390625 C8.67570312 5.99761719 9.32796875 6.49132812 10 7 C8.5746718 10.24521921 6.84594258 12.40153915 4.34274292 14.89776611 C3.58271973 15.66053864 2.82269653 16.42331116 2.03964233 17.209198 C1.20526642 18.03638336 0.3708905 18.86356873 -0.48876953 19.71582031 C-1.36688293 20.59422577 -2.24499634 21.47263123 -3.14971924 22.37765503 C-5.55503431 24.78181611 -7.9646992 27.18145536 -10.37640619 29.57919407 C-12.89708199 32.08736128 -15.41208935 34.60119926 -17.92770386 37.11444092 C-22.69062818 41.87115086 -27.45862747 46.62273986 -32.22847164 51.37250972 C-37.65920388 56.7808817 -43.08425334 62.19493866 -48.50883317 67.60948038 C-59.66624475 78.7459909 -70.83077048 89.87534142 -82 101 C-83.15073227 97.54780318 -82.84286994 96.81391525 -81.6640625 93.4921875 C-81.34630859 92.59612793 -81.02855469 91.70006836 -80.70117188 90.77685547 C-80.34603516 89.81924316 -79.99089844 88.86163086 -79.625 87.875 C-79.26212891 86.89031738 -78.89925781 85.90563477 -78.52539062 84.89111328 C-73.37675255 71.30002892 -66.53494268 58.77071765 -58 47 C-57.61682617 46.46874512 -57.23365234 45.93749023 -56.83886719 45.39013672 C-44.96813515 29.11176677 -30.49447346 15.51755189 -14 4 C-12.97712891 3.25435791 -12.97712891 3.25435791 -11.93359375 2.49365234 C-7.67115888 -0.44536525 -5.17579889 -1.88923789 0 0 Z " fill="#FDC245" transform="translate(260,195)"/>
<path d="M0 0 C3.25299806 1.56648061 5.91714728 3.37538166 8.75 5.625 C9.54921875 6.25664062 10.3484375 6.88828125 11.171875 7.5390625 C11.77515625 8.02117187 12.3784375 8.50328125 13 9 C7.97936067 15.06383664 2.5306721 20.60435507 -3.04443359 26.15795898 C-4.05044696 27.16368978 -5.0562392 28.16964181 -6.06182861 29.17579651 C-8.77402907 31.88828222 -11.48928733 34.59768773 -14.20513105 37.30652499 C-17.04965758 40.14477271 -19.89132605 42.98587908 -22.73330688 45.82667542 C-28.10724512 51.19751364 -33.48372591 56.56579905 -38.86113894 61.93315798 C-44.98648362 68.04730011 -51.108967 74.16430404 -57.23121905 80.28154266 C-69.81764547 92.85753481 -82.40763676 105.42995255 -95 118 C-95.99 117.67 -96.98 117.34 -98 117 C-97.61485027 111.23603514 -96.88798582 105.50932206 -95.9375 99.8125 C-95.67259766 98.12060547 -95.67259766 98.12060547 -95.40234375 96.39453125 C-93.97955455 92.95050948 -93.2236383 92.10153374 -90.46252441 89.83091736 C-85.80485139 85.87846505 -81.50496112 81.63845985 -77.19726562 77.31079102 C-76.35729034 76.47096176 -75.51731506 75.63113251 -74.65188599 74.76585388 C-71.9009611 72.01423734 -69.15358632 69.25910538 -66.40625 66.50390625 C-64.49004105 64.58527144 -62.57307562 62.66739314 -60.65612793 60.74949646 C-56.14238616 56.23266023 -51.63119715 51.71328351 -47.1209445 47.19296354 C-41.98137654 42.04217555 -36.83893142 36.8942641 -31.69625568 31.74657929 C-21.12765727 21.16755924 -10.56263503 10.58497446 0 0 Z " fill="#698D96" transform="translate(270,203)"/>
<path d="M0 0 C4.57634236 2.88192453 6.29382144 6.14396756 8.05078125 11.08984375 C8.44113304 12.12905975 8.44113304 12.12905975 8.83937073 13.18927002 C9.67858244 15.43348965 10.4960054 17.68492706 11.3125 19.9375 C11.88361879 21.48331325 12.45605333 23.02864101 13.02978516 24.57348633 C13.88715698 26.88383985 14.74298845 29.19466739 15.59234619 31.50798035 C17.21552251 35.924393 18.89709254 40.30878565 20.66015625 44.671875 C21.23092896 46.09705444 21.23092896 46.09705444 21.81323242 47.55102539 C22.49856768 49.25278107 23.19460335 50.95028465 23.90356445 52.64233398 C25.82030567 57.4827417 26.35241444 60.7892267 25 66 C22.60374777 68.85706997 21.17120452 68.98197847 17.4375 69.375 C14 69 14 69 11 66 C10.01 62.7 9.02 59.4 8 56 C0.41 56 -7.18 56 -15 56 C-15.33 57.98 -15.66 59.96 -16 62 C-19.04761905 67.04761905 -19.04761905 67.04761905 -21 69 C-24.82011276 69.360388 -27.15684085 69.54048663 -30.4375 67.4375 C-32.60715723 64.05283473 -32.29889074 62.00438553 -32 58 C-31.17964085 54.92072736 -30.05541625 51.98876944 -28.89453125 49.0234375 C-28.57344894 48.17633209 -28.25236664 47.32922668 -27.92155457 46.45645142 C-26.89598906 43.75837159 -25.8545666 41.06674375 -24.8125 38.375 C-24.13110477 36.59024682 -23.4507566 34.80509352 -22.77148438 33.01953125 C-21.45924796 29.57539829 -20.13852555 26.13473683 -18.80957031 22.69702148 C-17.68436297 19.78532464 -16.571839 16.86973636 -15.47949219 13.94555664 C-15.04411133 12.78660889 -14.60873047 11.62766113 -14.16015625 10.43359375 C-13.61113647 8.95717407 -13.61113647 8.95717407 -13.05102539 7.45092773 C-10.37979185 1.22177246 -6.99997904 -1.12499663 0 0 Z " fill="#688E99" transform="translate(99,332)"/>
<path d="M0 0 C3.18086518 1.50946511 5.29869906 3.07941825 7.75 5.625 C8.36359375 6.25664062 8.9771875 6.88828125 9.609375 7.5390625 C10.29773438 8.26222656 10.29773438 8.26222656 11 9 C7.04247722 13.76932233 2.88878474 18.1797614 -1.55859375 22.49609375 C-3.50829092 24.49570317 -5.32689224 26.51808146 -7.14414978 28.63401794 C-10.98502149 33.03653079 -15.02586799 37.2083975 -19.13500977 41.35961914 C-20.30714523 42.54883972 -20.30714523 42.54883972 -21.50296021 43.76208496 C-28.63354843 50.98939978 -35.78669414 58.19457315 -42.94731236 65.39212894 C-48.23075544 70.7032499 -53.50216186 76.0257463 -58.75845295 81.36374384 C-62.91623015 85.583941 -67.09298937 89.78500966 -71.27656364 93.97964287 C-73.05002431 95.76353248 -74.81744714 97.55344546 -76.57870674 99.3493824 C-79.03457174 101.8511396 -81.51130653 104.33022452 -83.99438477 106.80493164 C-85.08164604 107.92758675 -85.08164604 107.92758675 -86.19087219 109.07292175 C-91.1935833 113.99416924 -91.1935833 113.99416924 -95.34068298 114.02415466 C-98.00614283 112.99763428 -100.41571178 111.89071577 -102.875 110.4375 C-103.65617188 109.98246094 -104.43734375 109.52742188 -105.2421875 109.05859375 C-106.11230469 108.53458984 -106.11230469 108.53458984 -107 108 C-102.00560623 101.97036604 -96.59211706 96.45699026 -91.04736328 90.93383789 C-90.051202 89.93795919 -89.05526186 88.94185924 -88.05952454 87.94555664 C-85.37418267 85.25992954 -82.68578337 82.57738251 -79.99679804 79.8954041 C-77.18029848 77.08518386 -74.36665747 74.27210448 -71.55270386 71.45933533 C-66.23188962 66.14162096 -60.90853291 60.82645942 -55.58424366 55.51222461 C-49.5193571 49.45854106 -43.45733223 43.40199531 -37.39553857 37.34521496 C-24.93352642 24.89363674 -12.46794942 12.445633 0 0 Z " fill="#FAC146" transform="translate(282,213)"/>
<path d="M0 0 C2.88955204 2.85017144 5.69599665 5.70920533 8.3125 8.8125 C8.82425781 9.41707031 9.33601563 10.02164063 9.86328125 10.64453125 C10.23839844 11.09183594 10.61351562 11.53914062 11 12 C4.71204238 19.64751602 -2.19315827 26.76042149 -9.71363831 33.20152283 C-13.86474973 36.82379039 -17.72650581 40.66428984 -21.55834961 44.61938477 C-23.02473054 46.12203466 -24.49128601 47.62451424 -25.95799255 49.12684631 C-26.72268797 49.91188097 -27.48738338 50.69691563 -28.27525139 51.50573921 C-33.21071973 56.56282397 -38.17671198 61.58999088 -43.13594723 66.62374973 C-47.48574872 71.04243542 -51.82507869 75.47058023 -56.14428711 79.91918945 C-60.3376963 84.23703232 -64.55732123 88.52760475 -68.79614449 92.80085564 C-70.40355834 94.43109864 -72.00111719 96.07111999 -73.58845329 97.72091866 C-75.80490631 100.0217799 -78.05326014 102.2861703 -80.31225586 104.54516602 C-80.95928467 105.2333139 -81.60631348 105.92146179 -82.27294922 106.63046265 C-86.73818679 110.99775097 -86.73818679 110.99775097 -90.33606148 111.00416374 C-92.67708975 110.51532343 -94.77569184 109.87383791 -97 109 C-97.6978659 108.72919396 -98.39573179 108.45838793 -99.11474514 108.17937565 C-100.76284606 107.49874983 -102.38505296 106.75593266 -104 106 C-99.57075445 100.69559608 -94.89667509 95.76407764 -89.99438477 90.89672852 C-89.21471344 90.11851746 -88.43504211 89.3403064 -87.63174438 88.53851318 C-85.94851401 86.85907067 -84.26412994 85.18078381 -82.57870674 83.50354195 C-79.90651642 80.84418397 -77.23752251 78.18165464 -74.56932068 75.51829529 C-68.42282528 69.38416355 -62.27168776 63.25469788 -56.12028503 57.12548828 C-50.03013275 51.0572001 -43.94199797 44.98690131 -37.85725212 38.91319084 C-35.23652166 36.29891062 -32.61278109 33.68767769 -29.98890686 31.07655334 C-28.37079206 29.46207366 -26.75281894 27.84745195 -25.13500977 26.23266602 C-24.05078484 25.15619057 -24.05078484 25.15619057 -22.94465637 24.05796814 C-18.97235465 20.08607672 -15.18074526 16.01682311 -11.52563381 11.75048733 C-9.31377758 9.2126396 -6.95938345 6.86404943 -4.5625 4.5 C-3.26505859 3.21609375 -3.26505859 3.21609375 -1.94140625 1.90625 C-1.30074219 1.2771875 -0.66007812 0.648125 0 0 Z " fill="#678D97" transform="translate(293,222)"/>
<path d="M0 0 C2.78324277 1.74793024 4.27469187 3.25188155 6.1171875 6.015625 C5.96756814 9.53167997 5.47573407 11.5110039 3.4296875 14.390625 C0.36905025 16.54134307 -1.19964274 16.53126877 -4.8828125 16.015625 C-5.7284375 15.520625 -6.5740625 15.025625 -7.4453125 14.515625 C-12.81799434 12.17118202 -18.11095096 12.35388291 -23.8828125 13.015625 C-28.91640883 15.3999601 -32.38278037 19.01556073 -34.8828125 24.015625 C-35.5660826 31.29637193 -35.67513156 38.13722797 -30.8828125 44.015625 C-26.87723299 47.87040623 -22.90762951 49.35830286 -17.3828125 49.703125 C-12.1384132 49.49334903 -9.65934446 47.72506022 -5.796875 44.36328125 C-2.42006623 41.98573222 0.11532631 42.4051716 4.1171875 43.015625 C6.1171875 44.015625 6.1171875 44.015625 7.1171875 46.015625 C7.72925495 50.75914771 7.99173212 52.84045567 5.1171875 56.703125 C-5.10392993 64.58190302 -13.13548247 65.90207009 -25.8828125 65.015625 C-29.28809369 64.17511131 -31.94315852 62.90666494 -34.8828125 61.015625 C-35.57761719 60.59152344 -36.27242188 60.16742188 -36.98828125 59.73046875 C-44.1736716 54.89077806 -48.98885936 47.83514684 -51.41015625 39.52734375 C-53.33959075 29.27423316 -51.92429257 20.69961127 -46.5625 11.83203125 C-35.8988902 -3.58067253 -16.80774368 -8.78745105 0 0 Z " fill="#DFEEFD" transform="translate(434.8828125,334.984375)"/>
<path d="M0 0 C3.66161578 1.22053859 4.16270474 2.36782304 6.1875 5.5625 C6.71730469 6.38878906 7.24710937 7.21507812 7.79296875 8.06640625 C8.19128906 8.70449219 8.58960938 9.34257812 9 10 C7.5878962 13.17886662 5.89631778 15.38707239 3.4883728 17.88671875 C2.75988632 18.64685776 2.03139984 19.40699677 1.28083801 20.19017029 C0.08100533 21.4263485 0.08100533 21.4263485 -1.14306641 22.6875 C-1.98572556 23.56257706 -2.8283847 24.43765411 -3.69657898 25.33924866 C-11.46587336 33.38857639 -19.29663977 41.37876061 -27.14774513 49.34825134 C-32.9455666 55.23521852 -38.70845538 61.1524248 -44.4299475 67.11362267 C-48.46227442 71.30904886 -52.53248525 75.46530848 -56.63199174 79.59510231 C-59.07690941 82.06030791 -61.50193574 84.53948202 -63.88701248 87.06274414 C-78.44577084 102.42944534 -78.44577084 102.42944534 -84.45580292 103.39422607 C-89.51342188 103.13078116 -93.61745526 101.44382013 -98 99 C-96.65551143 96.00758318 -95.1684584 93.91897879 -92.85214233 91.60490417 C-92.20465027 90.95321762 -91.5571582 90.30153107 -90.89004517 89.63009644 C-90.18044647 88.92611725 -89.47084778 88.22213806 -88.73974609 87.49682617 C-87.99152588 86.74670761 -87.24330566 85.99658905 -86.47241211 85.22373962 C-83.99428212 82.74190142 -81.50901594 80.26734553 -79.0234375 77.79296875 C-77.29631699 76.06704073 -75.5695664 74.34074246 -73.84317017 72.61408997 C-70.21965843 68.99214348 -66.59280928 65.37358378 -62.96337891 61.75756836 C-58.32486802 57.13599004 -53.69290904 52.50791438 -49.06323814 47.87748241 C-45.49463241 44.30914958 -41.92341841 40.74343679 -38.35133743 37.17858315 C-36.64361992 35.47403579 -34.9364968 33.7688927 -33.22999191 32.06313133 C-30.83469754 29.67002138 -28.43612799 27.28024266 -26.03662109 24.89135742 C-25.33916779 24.19345093 -24.64171448 23.49554443 -23.92312622 22.77648926 C-19.9928836 18.87147563 -15.96291829 15.14174407 -11.75737953 11.53419971 C-9.21873782 9.31795483 -6.86650723 6.96187538 -4.5 4.5625 C-3.6440625 3.69753906 -2.788125 2.83257812 -1.90625 1.94140625 C-0.96265625 0.98041016 -0.96265625 0.98041016 0 0 Z " fill="#FAC146" transform="translate(303,235)"/>
<path d="M0 0 C2.69787075 2.69787075 4.28615925 4.93409471 6.1875 8.1875 C6.71730469 9.08855469 7.24710937 9.98960937 7.79296875 10.91796875 C8.19128906 11.60503906 8.58960938 12.29210937 9 13 C4.72421528 18.07453429 0.29185531 22.93371208 -4.31201172 27.71118164 C-5.01870499 28.4469342 -5.72539825 29.18268677 -6.45350647 29.94073486 C-12.93021576 36.66999845 -19.45674588 43.35052802 -26.00015068 50.01490116 C-30.38556194 54.48319084 -34.75199875 58.96710399 -39.07910156 63.49194336 C-43.28039632 67.88421086 -47.52455328 72.23052233 -51.80194473 76.54867363 C-53.41804568 78.19539787 -55.01843697 79.85770036 -56.60201645 81.53572273 C-69.61400178 95.2890599 -69.61400178 95.2890599 -76.55670166 95.60324097 C-81.93525655 95.25374197 -86.47653782 94.01564146 -91 91 C-60.97 60.97 -30.94 30.94 0 0 Z " fill="#698D96" transform="translate(312,246)"/>
<path d="M0 0 C2.25312225 2.18401518 3.80916105 4.13646606 5.25 6.9375 C5.60578125 7.60652344 5.9615625 8.27554687 6.328125 8.96484375 C7.15497252 11.46942259 6.8384506 12.5250574 6 15 C4.10489741 17.27190844 2.19576876 19.38950521 0.14526367 21.51269531 C-0.46649216 22.15701508 -1.07824799 22.80133484 -1.70854187 23.46517944 C-8.13261252 30.20561388 -14.65095657 36.85656585 -21.17504883 43.5 C-24.26083774 46.64797657 -27.31621047 49.82139 -30.34790039 53.02148438 C-34.01974316 56.89689637 -37.73950456 60.71975643 -41.49738121 64.51174164 C-42.91361666 65.95715288 -44.31276187 67.41953707 -45.69303322 68.89933014 C-57.05447207 81.03513409 -57.05447207 81.03513409 -65.46957397 81.87731934 C-70.38039884 82.0308763 -75.1336746 81.64366644 -80 81 C-75.7237549 75.89158298 -71.24775843 71.10890952 -66.52587891 66.41235352 C-65.80323853 65.68956711 -65.08059814 64.9667807 -64.33605957 64.22209167 C-61.96859215 61.85531584 -59.59761225 59.49209281 -57.2265625 57.12890625 C-55.57582093 55.48003154 -53.92530133 53.83093458 -52.2749939 52.18162537 C-47.94701522 47.85745076 -43.61604101 43.5362887 -39.28442383 39.21575928 C-34.85836624 34.7999613 -30.43516519 30.381304 -26.01171875 25.96289062 C-17.3439301 17.30580205 -8.67297231 8.65189519 0 0 Z " fill="#FEC244" transform="translate(320,260)"/>
<path d="M0 0 C2.92038683 9.99452775 4.88397326 19.64738355 6 30 C-36.47721944 51.71160072 -36.47721944 51.71160072 -50 48 C-43.78198639 41.73572188 -37.55864253 35.47680335 -31.32835579 29.22473145 C-28.43580344 26.32172529 -25.54514757 23.41688117 -22.65869141 20.5078125 C-19.87497811 17.70242766 -17.08646031 14.90190373 -14.29449081 12.10473633 C-13.22817956 11.03471906 -12.16363517 9.96293816 -11.10086441 8.8894043 C-9.61626336 7.39036392 -8.12560122 5.89762009 -6.63330078 4.40625 C-5.78502716 3.55353516 -4.93675354 2.70082031 -4.06277466 1.82226562 C-2 0 -2 0 0 0 Z " fill="#F3AA33" transform="translate(334,290)"/>
<path d="M0 0 C2.91773328 1.53061418 5.67164312 3.20306826 8.43359375 5 C9.40941406 5.63164062 10.38523437 6.26328125 11.390625 6.9140625 C12.12667969 7.39617187 12.86273438 7.87828125 13.62109375 8.375 C-0.53667439 23.7712646 -33.45870305 29.46556687 -53.37890625 31.375 C-55.97173102 31.45154035 -58.56622308 31.48311566 -61.16015625 31.47265625 C-61.85911011 31.4712413 -62.55806396 31.46982635 -63.27819824 31.46836853 C-65.47848054 31.4628367 -67.67865548 31.45029777 -69.87890625 31.4375 C-71.3841131 31.43247616 -72.88932157 31.42791482 -74.39453125 31.42382812 C-78.0560236 31.41288977 -81.71745442 31.39567359 -85.37890625 31.375 C-85.37890625 31.045 -85.37890625 30.715 -85.37890625 30.375 C-84.28578125 30.23964844 -83.19265625 30.10429687 -82.06640625 29.96484375 C-55.10950722 26.32993961 -25.97490287 17.35255556 -4.30859375 0.2109375 C-2.37890625 -0.625 -2.37890625 -0.625 0 0 Z " fill="#C5E3FE" transform="translate(242.37890625,480.625)"/>
<path d="M0 0 C2.10850329 3.16275494 3.28830876 6.13471538 4.625 9.6875 C5.07101562 10.86699219 5.51703125 12.04648437 5.9765625 13.26171875 C6.31429688 14.16535156 6.65203125 15.06898438 7 16 C-1 24 -9 32 -17 40 C-18.55375512 37.00742182 -19.48057903 34.38177942 -20.125 31.0625 C-20.29257812 30.22847656 -20.46015625 29.39445312 -20.6328125 28.53515625 C-21.02416165 25.83318178 -21.31760791 23.72392544 -21 21 C-19.07226562 18.50463867 -19.07226562 18.50463867 -16.40625 15.91796875 C-15.94013306 15.45892654 -15.47401611 14.99988434 -14.99377441 14.52693176 C-13.50719906 13.06827091 -12.00417692 11.62798135 -10.5 10.1875 C-9.48714489 9.19973159 -8.47541192 8.21081114 -7.46484375 7.22070312 C-4.98942755 4.80031517 -2.49895831 2.39610098 0 0 Z " fill="#547983" transform="translate(327,273)"/>
<path d="M0 0 C2.61437086 2.51222206 4.35302032 5.04850143 6.1875 8.1875 C6.71730469 9.08855469 7.24710937 9.98960937 7.79296875 10.91796875 C8.19128906 11.60503906 8.58960938 12.29210937 9 13 C3.17371096 20.15801225 -3.4382985 26.52591766 -10 33 C-13 32 -13 32 -14.421875 29.63671875 C-14.86015625 28.66347656 -15.2984375 27.69023437 -15.75 26.6875 C-16.19859375 25.72199219 -16.6471875 24.75648438 -17.109375 23.76171875 C-18.08834069 20.72606637 -18.10758275 19.90668119 -17 17 C-15.32592773 14.98535156 -15.32592773 14.98535156 -13.18359375 12.890625 C-12.41982422 12.13652344 -11.65605469 11.38242187 -10.86914062 10.60546875 C-10.06669922 9.82816406 -9.26425781 9.05085937 -8.4375 8.25 C-7.63119141 7.45722656 -6.82488281 6.66445312 -5.99414062 5.84765625 C-4.00266222 3.89152954 -2.00452279 1.94274281 0 0 Z " fill="#547A83" transform="translate(312,246)"/>
<path d="M0 0 C2.46060156 2.46060156 3.71958833 3.96233403 5.25 6.9375 C5.60578125 7.60652344 5.9615625 8.27554687 6.328125 8.96484375 C7.17942608 11.5434941 6.96080657 12.46135773 6 15 C4.05053711 17.29003906 4.05053711 17.29003906 1.52734375 19.765625 C0.17866211 21.09980469 0.17866211 21.09980469 -1.19726562 22.4609375 C-2.14279297 23.38132812 -3.08832031 24.30171875 -4.0625 25.25 C-5.02216973 26.19461673 -5.98116229 27.13992195 -6.93945312 28.0859375 C-9.28638828 30.39749172 -11.64003391 32.7017634 -14 35 C-16 32 -16 32 -20 20 C-13.4 13.4 -6.8 6.8 0 0 Z " fill="#F4AA32" transform="translate(320,260)"/>
<path d="M0 0 C2.88955204 2.85017144 5.69599665 5.70920533 8.3125 8.8125 C8.82425781 9.41707031 9.33601563 10.02164063 9.86328125 10.64453125 C10.23839844 11.09183594 10.61351562 11.53914062 11 12 C7.43478928 16.3157814 3.71412126 20.42162922 -0.1875 24.4375 C-1.02667969 25.30246094 -1.86585938 26.16742188 -2.73046875 27.05859375 C-5 29 -5 29 -8 29 C-9.82421875 26.69921875 -9.82421875 26.69921875 -11.6875 23.6875 C-12.31011719 22.70136719 -12.93273437 21.71523437 -13.57421875 20.69921875 C-15 18 -15 18 -15 15 C-13.62304688 13.2824707 -13.62304688 13.2824707 -11.71875 11.42578125 C-11.04199219 10.75869141 -10.36523438 10.09160156 -9.66796875 9.40429688 C-8.95253906 8.71400391 -8.23710937 8.02371094 -7.5 7.3125 C-6.42685547 6.2596582 -6.42685547 6.2596582 -5.33203125 5.18554688 C-3.56120423 3.45013639 -1.78376544 1.7220927 0 0 Z " fill="#587B81" transform="translate(293,222)"/>
<path d="M0 0 C3.66161578 1.22053859 4.16270474 2.36782304 6.1875 5.5625 C6.71730469 6.38878906 7.24710937 7.21507812 7.79296875 8.06640625 C8.19128906 8.70449219 8.58960938 9.34257812 9 10 C7.5735422 13.2586636 5.83295838 15.4024854 3.3046875 17.890625 C2.58925781 18.59960938 1.87382812 19.30859375 1.13671875 20.0390625 C0.01716797 21.13347656 0.01716797 21.13347656 -1.125 22.25 C-1.87910156 22.99507813 -2.63320313 23.74015625 -3.41015625 24.5078125 C-5.26900772 26.3431342 -7.13237005 28.1736191 -9 30 C-16.13866755 20.53722889 -16.13866755 20.53722889 -15.82055664 17.01074219 C-14.81075511 14.53626275 -13.53320958 13.19203622 -11.62109375 11.328125 C-10.94755859 10.66425781 -10.27402344 10.00039062 -9.58007812 9.31640625 C-8.87302734 8.63449219 -8.16597656 7.95257813 -7.4375 7.25 C-6.72658203 6.55261719 -6.01566406 5.85523438 -5.28320312 5.13671875 C-3.52869286 3.4175342 -1.76756648 1.70574128 0 0 Z " fill="#F2AA33" transform="translate(303,235)"/>
<path d="M0 0 C2.7734375 1.62890625 2.7734375 1.62890625 5.375 3.5625 C6.68597656 4.52349609 6.68597656 4.52349609 8.0234375 5.50390625 C8.67570312 5.99761719 9.32796875 6.49132812 10 7 C8.41332422 10.90285767 5.86649519 13.33520982 2.875 16.25 C1.96492188 17.14203125 1.05484375 18.0340625 0.1171875 18.953125 C-0.58148438 19.62859375 -1.28015625 20.3040625 -2 21 C-5.7000155 19.3867231 -8.53020949 17.06926004 -11.625 14.5 C-13.06746094 13.30890625 -13.06746094 13.30890625 -14.5390625 12.09375 C-17 10 -17 10 -19 8 C-17.20966193 6.68568828 -15.41768797 5.3736047 -13.625 4.0625 C-12.62726563 3.33160156 -11.62953125 2.60070312 -10.6015625 1.84765625 C-6.4802238 -1.07936057 -4.94967712 -1.21032251 0 0 Z " fill="#F4AB32" transform="translate(260,195)"/>
<path d="M0 0 C3.2826932 1.49076434 5.93077441 3.38620321 8.75 5.625 C9.54921875 6.25664062 10.3484375 6.88828125 11.171875 7.5390625 C11.77515625 8.02117187 12.3784375 8.50328125 13 9 C8.59156563 14.29012124 3.92440206 19.18808428 -1 24 C-3.93376778 22.70789376 -5.68524572 21.48420965 -7.625 18.9375 C-9.67119397 15.99175287 -9.67119397 15.99175287 -12 15 C-11.58685438 10.55073948 -8.49538473 8.15899896 -5.4375 5.25 C-4.91736328 4.74339844 -4.39722656 4.23679688 -3.86132812 3.71484375 C-2.58089916 2.46965595 -1.29132446 1.23388498 0 0 Z " fill="#547A83" transform="translate(270,203)"/>
<path d="M0 0 C3.21524305 1.40844718 5.32183868 3.10344786 7.75 5.625 C8.67039062 6.57246094 8.67039062 6.57246094 9.609375 7.5390625 C10.06828125 8.02117187 10.5271875 8.50328125 11 9 C6.33477149 14.62219846 1.48740595 20.16010796 -4 25 C-4.66 25 -5.32 25 -6 25 C-7.43581474 23.38542921 -8.80144783 21.70780925 -10.125 20 C-11.21167969 18.6078125 -11.21167969 18.6078125 -12.3203125 17.1875 C-12.87460937 16.465625 -13.42890625 15.74375 -14 15 C-9.59156563 9.70987876 -4.92440206 4.81191572 0 0 Z " fill="#F3AA32" transform="translate(282,213)"/>
<path d="M0 0 C0.77040851 6.06696699 1.09706112 11.88514973 1 18 C-17.81417629 26.36657501 -17.81417629 26.36657501 -26 24 C-22.62501264 20.57568181 -19.24358951 17.15790288 -15.85595703 13.74609375 C-14.70375906 12.58382014 -13.55336008 11.41976033 -12.40478516 10.25390625 C-10.75629586 8.58123721 -9.10150495 6.91503765 -7.4453125 5.25 C-6.6733403 4.46254395 -6.6733403 4.46254395 -5.88577271 3.65917969 C-2.22774341 0 -2.22774341 0 0 0 Z " fill="#FAC147" transform="translate(310,314)"/>
<path d="M0 0 C2.27024968 -0.08097324 4.54132075 -0.13917704 6.8125 -0.1875 C8.07707031 -0.22230469 9.34164062 -0.25710937 10.64453125 -0.29296875 C14 0 14 0 15.92578125 1.29296875 C17.74109309 4.17766429 17.35319931 6.70347311 17 10 C15.92578125 11.70703125 15.92578125 11.70703125 14 13 C10.64453125 13.29296875 10.64453125 13.29296875 6.8125 13.1875 C5.54019531 13.16042969 4.26789063 13.13335937 2.95703125 13.10546875 C1.98121094 13.07066406 1.00539062 13.03585938 0 13 C0 8.71 0 4.42 0 0 Z " fill="#0FD290" transform="translate(245,105)"/>
<path d="M0 0 C1.62463842 -0.05395478 3.24978541 -0.09277195 4.875 -0.125 C5.77992188 -0.14820312 6.68484375 -0.17140625 7.6171875 -0.1953125 C10 0 10 0 12 2 C12.25 4.5 12.25 4.5 12 7 C10 9 10 9 7.6171875 9.1953125 C6.71226562 9.17210938 5.80734375 9.14890625 4.875 9.125 C3.50988281 9.09792969 3.50988281 9.09792969 2.1171875 9.0703125 C1.41851562 9.04710938 0.71984375 9.02390625 0 9 C0 6.03 0 3.06 0 0 Z " fill="#0ED290" transform="translate(245,80)"/>
<path d="M0 0 C4.12145716 3.47495408 4.62097262 7.94356628 6 13 C2.7 13 -0.6 13 -4 13 C-3.40895235 8.15340923 -2.02055843 4.39251833 0 0 Z " fill="#D3E4F1" transform="translate(95,360)"/>
</svg>
